<?xml version="1.0" standalone="no"?>
<!DOCTYPE svg PUBLIC "-//W3C//DTD SVG 20010904//EN"
 "http://www.w3.org/TR/2001/REC-SVG-20010904/DTD/svg10.dtd">
<svg version="1.0" xmlns="http://www.w3.org/2000/svg"
 width="520.000000pt" height="520.000000pt" viewBox="0 0 520.000000 520.000000"
 preserveAspectRatio="xMidYMid meet">
<metadata>
Created by potrace 1.11, written by Peter Selinger 2001-2013
</metadata>
<g transform="translate(0.000000,520.000000) scale(0.100000,-0.100000)"
fill="#000000" stroke="none">
<path d="M4220 5064 c-278 -39 -519 -201 -645 -432 -29 -53 -32 -55 -75 -58
-154 -10 -253 -29 -380 -71 -189 -63 -393 -184 -540 -320 -35 -33 -55 -41 -62
-25 -4 12 -138 109 -219 159 -187 117 -435 214 -610 238 -44 7 -48 10 -85 73
-102 175 -302 322 -512 376 -94 25 -137 30 -252 29 -385 -2 -726 -257 -815
-608 -19 -74 -23 -110 -20 -205 5 -168 47 -289 149 -428 l47 -63 -39 -112
c-22 -62 -40 -115 -40 -120 0 -4 -6 -33 -13 -65 -32 -153 -42 -348 -25 -527
48 -534 277 -909 882 -1444 173 -153 253 -223 278 -240 11 -8 27 -22 37 -30
35 -32 79 -69 192 -161 10 -8 28 -22 38 -32 11 -9 39 -31 61 -50 23 -18 103
-83 177 -143 75 -61 271 -221 436 -355 165 -134 320 -261 344 -282 24 -21 47
-38 50 -38 3 0 29 21 56 46 132 121 241 221 264 244 15 14 74 68 131 120 58
52 112 101 121 110 21 20 186 170 213 193 12 10 55 49 96 87 41 38 85 77 97
88 21 17 79 71 293 267 36 33 90 83 120 112 30 29 73 69 95 89 80 73 330 321
416 414 427 462 593 824 584 1275 -3 145 -6 170 -31 268 -17 66 -62 197 -74
212 -26 34 -21 56 24 103 90 94 146 190 187 322 19 61 24 97 24 195 -1 68 -6
144 -14 174 -103 410 -520 677 -961 615z"/>
</g>
</svg>
